<svg xmlns="http://www.w3.org/2000/svg" aria-hidden="true" style="position:absolute;width:0;height:0;overflow:hidden">
  <defs>
    <symbol id="mobile-burger" viewBox="0 0 28 28" fill="none">
      <path d="M3.5 17.5H24.5M3.5 10.5H24.5" stroke="#1B414B" stroke-width="2.5" stroke-linecap="round" stroke-linejoin="round" />
    </symbol>
    <symbol id="instagram" viewBox="0 0 32 32" fill="currentColor">
      <path d="M21.179 4H9.487a6.83 6.83 0 0 0-6.821 6.821v11.692a6.83 6.83 0 0 0 6.821 6.821h11.692A6.83 6.83 0 0 0 28 22.513V10.821A6.83 6.83 0 0 0 21.179 4m-5.846 18.513a5.85 5.85 0 0 1-5.401-3.609c-.442-1.068-.558-2.244-.333-3.378s.782-2.176 1.6-2.993a5.847 5.847 0 0 1 9.98 4.134 5.854 5.854 0 0 1-5.846 5.846m7.308-11.693a1.465 1.465 0 0 1-1.35-.902c-.111-.267-.14-.561-.083-.844a1.47 1.47 0 0 1 1.148-1.148 1.47 1.47 0 0 1 1.5.621 1.46 1.46 0 0 1-.182 1.845 1.46 1.46 0 0 1-1.033.428m-3.41 5.847a3.898 3.898 0 1 1-7.797-.002 3.898 3.898 0 0 1 7.797.002"/>
    </symbol>
    <symbol id="facebook" viewBox="0 0 32 32" fill="currentColor">
      <path d="M29.333 16.033C29.333 8.655 23.36 2.666 16 2.666S2.667 8.654 2.667 16.033c0 6.469 4.587 11.856 10.667 13.099v-9.089h-2.667v-4.01h2.667v-3.342a4.677 4.677 0 0 1 4.667-4.678h3.333v4.01h-2.667c-.733 0-1.333.601-1.333 1.337v2.673h4v4.01h-4v9.29c6.733-.668 12-6.363 12-13.3z"/>
    </symbol>
    <symbol id="youtube" viewBox="0 0 32 32" fill="currentColor">
      <path d="m18.226 15.768-3.119-1.455c-.272-.126-.496.015-.496.317v2.742c0 .301.224.443.496.317l3.118-1.455c.274-.128.274-.336.001-.464zM16 2.667C8.636 2.667 2.667 8.636 2.667 16S8.636 29.333 16 29.333 29.333 23.364 29.333 16 23.364 2.667 16 2.667m0 18.75c-6.825 0-6.944-.615-6.944-5.417s.119-5.417 6.944-5.417 6.944.615 6.944 5.417-.119 5.417-6.944 5.417"/>
    </symbol>
    <symbol id="mobile-close" viewBox="0 0 28 28" fill="currentColor">
      <path d="M22 7.86 20.14 6 14 12.14 7.86 6 6 7.86 12.14 14 6 20.14 7.86 22 14 15.86 20.14 22 22 20.14 15.86 14z"/>
    </symbol>
  </defs>
</svg>