<svg xmlns="http://www.w3.org/2000/svg" aria-hidden="true" style="position:absolute;width:0;height:0;overflow:hidden">
  <defs>
    <symbol id="instagram" fill="none" viewBox="0 0 24 24">
      <path fill="#1b414b" d="M15.885 3h-8.77A5.12 5.12 0 0 0 2 8.115v8.77A5.12 5.12 0 0 0 7.115 22h8.77A5.12 5.12 0 0 0 21 16.885v-8.77A5.12 5.12 0 0 0 15.885 3M11.5 16.885a4.385 4.385 0 1 1 0-8.77 4.385 4.385 0 0 1 0 8.77m5.48-8.77a1.096 1.096 0 1 1 0-2.19 1.096 1.096 0 0 1 0 2.19M14.424 12.5a2.923 2.923 0 1 1-5.846 0 2.923 2.923 0 0 1 5.846 0"/>
    </symbol>
    <symbol id="facebook" fill="none" viewBox="0 0 24 24">
      <path fill="#1b414b" d="M22 12.025C22 6.491 17.52 2 12 2S2 6.491 2 12.025c0 4.852 3.44 8.892 8 9.825v-6.817H8v-3.008h2V9.52a3.51 3.51 0 0 1 3.5-3.509H16v3.008h-2c-.55 0-1 .45-1 1.002v2.005h3v3.008h-3V22c5.05-.501 9-4.772 9-9.975"/>
    </symbol>
    <symbol id="youtube" fill="none" viewBox="0 0 24 24">
      <path fill="#1b414b" d="m13.67 11.826-2.34-1.092c-.204-.094-.372.012-.372.238v2.056c0 .226.168.332.372.238l2.339-1.092c.205-.096.205-.252 0-.348M12 2C6.477 2 2 6.477 2 12s4.477 10 10 10 10-4.477 10-10S17.523 2 12 2m0 14.063c-5.119 0-5.208-.462-5.208-4.063S6.882 7.938 12 7.938s5.208.461 5.208 4.062-.09 4.063-5.208 4.063"/>
    </symbol>
    <symbol id="mobile-burger" viewBox="0 0 28 28" fill="none">
      <path d="M3.5 17.5H24.5M3.5 10.5H24.5" stroke="#1B414B" stroke-width="2.5" stroke-linecap="round" stroke-linejoin="round" />
    </symbol>

  </defs>
</svg>